<mxfile host="Electron" modified="2024-02-13T12:34:55.541Z" agent="Mozilla/5.0 (Windows NT 10.0; Win64; x64) AppleWebKit/537.36 (KHTML, like Gecko) draw.io/22.1.18 Chrome/120.0.6099.199 Electron/28.1.2 Safari/537.36" etag="oUlEo68tudEdQSaDnTIR" version="22.1.18" type="device">
  <diagram name="Page-1" id="V2OYvVZpLqBmy5-c1n8g">
    <mxGraphModel dx="1194" dy="881" grid="1" gridSize="10" guides="1" tooltips="1" connect="1" arrows="1" fold="1" page="1" pageScale="1" pageWidth="850" pageHeight="1100" math="0" shadow="0">
      <root>
        <mxCell id="0" />
        <mxCell id="1" parent="0" />
        <mxCell id="Gf35meisQhOow05NZr5q-1" value="&lt;b&gt;&lt;font style=&quot;font-size: 18px;&quot;&gt;70&lt;/font&gt;&lt;/b&gt;" style="rounded=0;whiteSpace=wrap;html=1;" vertex="1" parent="1">
          <mxGeometry x="200" y="160" width="40" height="20" as="geometry" />
        </mxCell>
        <mxCell id="Gf35meisQhOow05NZr5q-2" value="&lt;b&gt;&lt;font style=&quot;font-size: 18px;&quot;&gt;10&lt;/font&gt;&lt;/b&gt;" style="rounded=0;whiteSpace=wrap;html=1;" vertex="1" parent="1">
          <mxGeometry x="240" y="160" width="40" height="20" as="geometry" />
        </mxCell>
        <mxCell id="Gf35meisQhOow05NZr5q-4" value="&lt;b&gt;&lt;font style=&quot;font-size: 18px;&quot;&gt;80&lt;/font&gt;&lt;/b&gt;" style="rounded=0;whiteSpace=wrap;html=1;" vertex="1" parent="1">
          <mxGeometry x="280" y="160" width="40" height="20" as="geometry" />
        </mxCell>
        <mxCell id="Gf35meisQhOow05NZr5q-5" value="&lt;b&gt;&lt;font style=&quot;font-size: 18px;&quot;&gt;40&lt;/font&gt;&lt;/b&gt;" style="rounded=0;whiteSpace=wrap;html=1;fillColor=#66FF66;" vertex="1" parent="1">
          <mxGeometry x="320" y="160" width="40" height="20" as="geometry" />
        </mxCell>
        <mxCell id="Gf35meisQhOow05NZr5q-6" value="&lt;b&gt;&lt;font style=&quot;font-size: 18px;&quot;&gt;20&lt;/font&gt;&lt;/b&gt;" style="rounded=0;whiteSpace=wrap;html=1;" vertex="1" parent="1">
          <mxGeometry x="360" y="160" width="40" height="20" as="geometry" />
        </mxCell>
        <mxCell id="Gf35meisQhOow05NZr5q-7" value="&lt;b&gt;&lt;font style=&quot;font-size: 18px;&quot;&gt;40&lt;/font&gt;&lt;/b&gt;" style="rounded=0;whiteSpace=wrap;html=1;fillColor=#FF9999;" vertex="1" parent="1">
          <mxGeometry x="400" y="160" width="40" height="20" as="geometry" />
        </mxCell>
        <mxCell id="Gf35meisQhOow05NZr5q-8" value="&lt;b&gt;&lt;font style=&quot;font-size: 18px;&quot;&gt;60&lt;/font&gt;&lt;/b&gt;" style="rounded=0;whiteSpace=wrap;html=1;" vertex="1" parent="1">
          <mxGeometry x="440" y="160" width="40" height="20" as="geometry" />
        </mxCell>
        <mxCell id="Gf35meisQhOow05NZr5q-9" value="&lt;b&gt;&lt;font style=&quot;font-size: 18px;&quot;&gt;50&lt;/font&gt;&lt;/b&gt;" style="rounded=0;whiteSpace=wrap;html=1;" vertex="1" parent="1">
          <mxGeometry x="480" y="160" width="40" height="20" as="geometry" />
        </mxCell>
        <mxCell id="Gf35meisQhOow05NZr5q-10" value="&lt;b&gt;&lt;font style=&quot;font-size: 18px;&quot;&gt;90&lt;/font&gt;&lt;/b&gt;" style="rounded=0;whiteSpace=wrap;html=1;" vertex="1" parent="1">
          <mxGeometry x="520" y="160" width="40" height="20" as="geometry" />
        </mxCell>
        <mxCell id="Gf35meisQhOow05NZr5q-12" value="&lt;b&gt;&lt;font style=&quot;font-size: 18px;&quot;&gt;70&lt;/font&gt;&lt;/b&gt;" style="rounded=0;whiteSpace=wrap;html=1;" vertex="1" parent="1">
          <mxGeometry x="440" y="320" width="40" height="20" as="geometry" />
        </mxCell>
        <mxCell id="Gf35meisQhOow05NZr5q-13" value="&lt;b&gt;&lt;font style=&quot;font-size: 18px;&quot;&gt;10&lt;/font&gt;&lt;/b&gt;" style="rounded=0;whiteSpace=wrap;html=1;" vertex="1" parent="1">
          <mxGeometry x="200" y="320" width="40" height="20" as="geometry" />
        </mxCell>
        <mxCell id="Gf35meisQhOow05NZr5q-14" value="&lt;b&gt;&lt;font style=&quot;font-size: 18px;&quot;&gt;80&lt;/font&gt;&lt;/b&gt;" style="rounded=0;whiteSpace=wrap;html=1;" vertex="1" parent="1">
          <mxGeometry x="480" y="320" width="40" height="20" as="geometry" />
        </mxCell>
        <mxCell id="Gf35meisQhOow05NZr5q-15" value="&lt;b&gt;&lt;font style=&quot;font-size: 18px;&quot;&gt;40&lt;/font&gt;&lt;/b&gt;" style="rounded=0;whiteSpace=wrap;html=1;fillColor=#99FF99;" vertex="1" parent="1">
          <mxGeometry x="280" y="320" width="40" height="20" as="geometry" />
        </mxCell>
        <mxCell id="Gf35meisQhOow05NZr5q-16" value="&lt;b&gt;&lt;font style=&quot;font-size: 18px;&quot;&gt;20&lt;/font&gt;&lt;/b&gt;" style="rounded=0;whiteSpace=wrap;html=1;" vertex="1" parent="1">
          <mxGeometry x="240" y="320" width="40" height="20" as="geometry" />
        </mxCell>
        <mxCell id="Gf35meisQhOow05NZr5q-17" value="&lt;b&gt;&lt;font style=&quot;font-size: 18px;&quot;&gt;40&lt;/font&gt;&lt;/b&gt;" style="rounded=0;whiteSpace=wrap;html=1;fillColor=#FF9999;" vertex="1" parent="1">
          <mxGeometry x="320" y="320" width="40" height="20" as="geometry" />
        </mxCell>
        <mxCell id="Gf35meisQhOow05NZr5q-18" value="&lt;b&gt;&lt;font style=&quot;font-size: 18px;&quot;&gt;60&lt;/font&gt;&lt;/b&gt;" style="rounded=0;whiteSpace=wrap;html=1;" vertex="1" parent="1">
          <mxGeometry x="400" y="320" width="40" height="20" as="geometry" />
        </mxCell>
        <mxCell id="Gf35meisQhOow05NZr5q-19" value="&lt;b&gt;&lt;font style=&quot;font-size: 18px;&quot;&gt;50&lt;/font&gt;&lt;/b&gt;" style="rounded=0;whiteSpace=wrap;html=1;" vertex="1" parent="1">
          <mxGeometry x="360" y="320" width="40" height="20" as="geometry" />
        </mxCell>
        <mxCell id="Gf35meisQhOow05NZr5q-20" value="&lt;b&gt;&lt;font style=&quot;font-size: 18px;&quot;&gt;90&lt;/font&gt;&lt;/b&gt;" style="rounded=0;whiteSpace=wrap;html=1;" vertex="1" parent="1">
          <mxGeometry x="520" y="320" width="40" height="20" as="geometry" />
        </mxCell>
        <mxCell id="Gf35meisQhOow05NZr5q-21" value="&lt;h1&gt;Input and Output of a Stable Sorting Algorithm&lt;/h1&gt;" style="text;html=1;strokeColor=none;fillColor=none;spacing=5;spacingTop=-20;whiteSpace=wrap;overflow=hidden;rounded=0;" vertex="1" parent="1">
          <mxGeometry x="102.5" y="20" width="555" height="40" as="geometry" />
        </mxCell>
        <mxCell id="Gf35meisQhOow05NZr5q-22" value="&lt;b&gt;&lt;font style=&quot;font-size: 14px;&quot;&gt;Input&lt;/font&gt;&lt;/b&gt;" style="text;html=1;strokeColor=none;fillColor=none;align=center;verticalAlign=middle;whiteSpace=wrap;rounded=0;" vertex="1" parent="1">
          <mxGeometry x="340" y="120" width="60" height="30" as="geometry" />
        </mxCell>
        <mxCell id="Gf35meisQhOow05NZr5q-23" value="&lt;b&gt;&lt;font style=&quot;font-size: 14px;&quot;&gt;Result&lt;/font&gt;&lt;/b&gt;" style="text;html=1;strokeColor=none;fillColor=none;align=center;verticalAlign=middle;whiteSpace=wrap;rounded=0;" vertex="1" parent="1">
          <mxGeometry x="330" y="280" width="60" height="30" as="geometry" />
        </mxCell>
        <mxCell id="Gf35meisQhOow05NZr5q-25" value="Order of the two duplicate values is preserved relative to one another" style="text;html=1;strokeColor=none;fillColor=none;align=center;verticalAlign=middle;whiteSpace=wrap;rounded=0;" vertex="1" parent="1">
          <mxGeometry x="570" y="315" width="200" height="30" as="geometry" />
        </mxCell>
      </root>
    </mxGraphModel>
  </diagram>
</mxfile>
